<mxfile host="app.diagrams.net" modified="2020-12-07T02:33:58.696Z" agent="5.0 (Windows NT 10.0; Win64; x64) AppleWebKit/537.36 (KHTML, like Gecko) Chrome/86.0.4240.198 Safari/537.36" etag="fuYFxpZ_-fn21UkTzDnl" version="13.10.9" type="github">
  <diagram id="3_leCuQxcKob-mFhwr9k" name="Page-1">
    <mxGraphModel dx="1550" dy="778" grid="1" gridSize="10" guides="1" tooltips="1" connect="1" arrows="1" fold="1" page="1" pageScale="1" pageWidth="827" pageHeight="1169" math="0" shadow="0">
      <root>
        <mxCell id="0" />
        <mxCell id="1" parent="0" />
        <mxCell id="znTiQh1u2bCukuswLQQQ-19" value="通过" style="edgeStyle=orthogonalEdgeStyle;rounded=0;orthogonalLoop=1;jettySize=auto;html=1;" edge="1" parent="1" source="znTiQh1u2bCukuswLQQQ-12" target="znTiQh1u2bCukuswLQQQ-18">
          <mxGeometry relative="1" as="geometry" />
        </mxCell>
        <mxCell id="znTiQh1u2bCukuswLQQQ-20" value="不通过" style="edgeStyle=orthogonalEdgeStyle;rounded=0;orthogonalLoop=1;jettySize=auto;html=1;entryX=1;entryY=0.75;entryDx=0;entryDy=0;" edge="1" parent="1" source="znTiQh1u2bCukuswLQQQ-12" target="znTiQh1u2bCukuswLQQQ-13">
          <mxGeometry relative="1" as="geometry">
            <mxPoint x="520" y="370" as="targetPoint" />
            <Array as="points">
              <mxPoint x="460" y="585" />
              <mxPoint x="460" y="375" />
            </Array>
          </mxGeometry>
        </mxCell>
        <mxCell id="znTiQh1u2bCukuswLQQQ-12" value="登录校验" style="strokeWidth=2;html=1;shape=mxgraph.flowchart.decision;whiteSpace=wrap;" vertex="1" parent="1">
          <mxGeometry x="330" y="552" width="100" height="65" as="geometry" />
        </mxCell>
        <mxCell id="znTiQh1u2bCukuswLQQQ-15" value="账号/密码" style="edgeStyle=orthogonalEdgeStyle;rounded=0;orthogonalLoop=1;jettySize=auto;html=1;" edge="1" parent="1" source="znTiQh1u2bCukuswLQQQ-13" target="znTiQh1u2bCukuswLQQQ-14">
          <mxGeometry relative="1" as="geometry" />
        </mxCell>
        <mxCell id="znTiQh1u2bCukuswLQQQ-13" value="浏览器登录" style="rounded=0;whiteSpace=wrap;html=1;" vertex="1" parent="1">
          <mxGeometry x="320" y="330" width="120" height="60" as="geometry" />
        </mxCell>
        <mxCell id="znTiQh1u2bCukuswLQQQ-16" value="" style="edgeStyle=orthogonalEdgeStyle;rounded=0;orthogonalLoop=1;jettySize=auto;html=1;" edge="1" parent="1" source="znTiQh1u2bCukuswLQQQ-14" target="znTiQh1u2bCukuswLQQQ-12">
          <mxGeometry relative="1" as="geometry" />
        </mxCell>
        <mxCell id="znTiQh1u2bCukuswLQQQ-14" value="微软AD服务器" style="rounded=0;whiteSpace=wrap;html=1;" vertex="1" parent="1">
          <mxGeometry x="320" y="450" width="120" height="60" as="geometry" />
        </mxCell>
        <mxCell id="znTiQh1u2bCukuswLQQQ-26" value="是" style="edgeStyle=orthogonalEdgeStyle;rounded=0;orthogonalLoop=1;jettySize=auto;html=1;" edge="1" parent="1" source="znTiQh1u2bCukuswLQQQ-18" target="znTiQh1u2bCukuswLQQQ-24">
          <mxGeometry relative="1" as="geometry" />
        </mxCell>
        <mxCell id="znTiQh1u2bCukuswLQQQ-28" value="f否" style="edgeStyle=orthogonalEdgeStyle;rounded=0;orthogonalLoop=1;jettySize=auto;html=1;entryX=1;entryY=0.75;entryDx=0;entryDy=0;" edge="1" parent="1" source="znTiQh1u2bCukuswLQQQ-18" target="znTiQh1u2bCukuswLQQQ-25">
          <mxGeometry relative="1" as="geometry">
            <Array as="points">
              <mxPoint x="460" y="703" />
              <mxPoint x="460" y="945" />
            </Array>
          </mxGeometry>
        </mxCell>
        <mxCell id="znTiQh1u2bCukuswLQQQ-18" value="是否第一次登录" style="strokeWidth=2;html=1;shape=mxgraph.flowchart.decision;whiteSpace=wrap;" vertex="1" parent="1">
          <mxGeometry x="330" y="670" width="100" height="65" as="geometry" />
        </mxCell>
        <mxCell id="znTiQh1u2bCukuswLQQQ-27" style="edgeStyle=orthogonalEdgeStyle;rounded=0;orthogonalLoop=1;jettySize=auto;html=1;entryX=0.5;entryY=0;entryDx=0;entryDy=0;" edge="1" parent="1" source="znTiQh1u2bCukuswLQQQ-24" target="znTiQh1u2bCukuswLQQQ-25">
          <mxGeometry relative="1" as="geometry" />
        </mxCell>
        <mxCell id="znTiQh1u2bCukuswLQQQ-24" value="创建用户信息" style="rounded=0;whiteSpace=wrap;html=1;" vertex="1" parent="1">
          <mxGeometry x="320" y="790" width="120" height="60" as="geometry" />
        </mxCell>
        <mxCell id="znTiQh1u2bCukuswLQQQ-25" value="登录成功" style="rounded=0;whiteSpace=wrap;html=1;" vertex="1" parent="1">
          <mxGeometry x="320" y="900" width="120" height="60" as="geometry" />
        </mxCell>
      </root>
    </mxGraphModel>
  </diagram>
</mxfile>
